<?xml version="1.0" encoding="utf-8"?>
<!-- Generator: Adobe Illustrator 25.1.0, SVG Export Plug-In . SVG Version: 6.00 Build 0)  -->
<svg version="1.1" id="Layer_1" xmlns:vectornator="http://vectornator.io"
	 xmlns="http://www.w3.org/2000/svg" xmlns:xlink="http://www.w3.org/1999/xlink" x="0px" y="0px" viewBox="0 0 100 100"
	 style="enable-background:new 0 0 100 100;" xml:space="preserve">
<style type="text/css">
	.st0{fill-rule:evenodd;clip-rule:evenodd;}
	.st1{fill-rule:evenodd;clip-rule:evenodd;stroke:#FCFC17;stroke-width:3;stroke-linejoin:round;stroke-miterlimit:14.4;}
	.st2{fill-rule:evenodd;clip-rule:evenodd;stroke:#16D41A;stroke-width:3;stroke-linejoin:round;stroke-miterlimit:14.4;}
	.st3{fill-rule:evenodd;clip-rule:evenodd;stroke:#FF0000;stroke-width:3;stroke-linejoin:round;stroke-miterlimit:14.4;}
	.st4{fill-rule:evenodd;clip-rule:evenodd;stroke:#FB16BB;stroke-width:3;stroke-linejoin:round;stroke-miterlimit:14.4;}
</style>
<g id="Layer-1" vectornator:layerName="Layer-1">
	<path class="st0" d="M16.3,27.6l47-25l24.7,47l-46.6,25L16.3,27.6z"/>
	<path class="st1" d="M53.5,35.4l4.5-15l3.9-12.8"/>
	<path class="st1" d="M71.2,26l-27.5-8.7"/>
	<path class="st2" d="M57.5,52.5c0,3.3-1.3,6.4-3.6,8.4c-0.6,0.5-1.3,1-2,1.4C46.4,65,39.8,62.6,37.3,57c-2.1-4.9,0-10.4,4.5-13.2
		c0.6-0.3,1.1-0.5,1.7-0.7c4.5-1.4,9.4,0.2,12.2,4.2"/>
	<path class="st0" d="M12.1,55l4.2-25l23.7,44.9l-5.6,21.9L12.1,55z"/>
	<path class="st0" d="M42,75.2l-6.3,22.3l43.5-23.3l8.3-23L42,75.2z"/>
	<path class="st3" d="M28,24.7c0.7-0.8,1.6-1.5,2.5-2.1"/>
	<path class="st3" d="M40.7,41.1c-5.6,2.8-12.2-0.1-14.7-5.7c-1.6-3.8-0.7-7.8,2-10.7"/>
	<path class="st3" d="M46.2,31.3c0,4.2-2.1,8-5.6,9.7"/>
	<path class="st4" d="M78.6,40.8c0.3,3.3-0.7,6.5-2.8,8.7c-0.6,0.6-1.2,1.1-1.9,1.5c-5.3,3.3-12.1,1.5-15-3.9
		c-2.5-4.7-1-10.4,3.3-13.6c0.5-0.3,1.1-0.6,1.7-0.9c4.3-1.8,9.4-0.7,12.5,3"/>
	<path class="st3" d="M30,23c5.3-3.3,12.2-1.1,15.2,4.2c2,3.6,1.5,7.7-0.9,10.8"/>
</g>
</svg>
