<?xml version="1.0" encoding="UTF-8" standalone="no"?> <!-- Created with Vectornator for iOS (http://vectornator.io/) --><!DOCTYPE svg PUBLIC "-//W3C//DTD SVG 1.1//EN" "http://www.w3.org/Graphics/SVG/1.1/DTD/svg11.dtd">
<svg style="fill-rule:evenodd;clip-rule:evenodd;stroke-linecap:round;stroke-linejoin:round;" xmlns:vectornator="http://vectornator.io" xmlns:xlink="http://www.w3.org/1999/xlink" xmlns="http://www.w3.org/2000/svg" xml:space="preserve" version="1.1" viewBox="0 0 300 300">
<metadata>
<vectornator:setting key="DynamicGuides" value="1"/>
<vectornator:setting key="Units" value="Pixels"/>
<vectornator:setting key="GuidesVisible" value="1"/>
<vectornator:setting key="GridSpacing" value="36"/>
<vectornator:setting key="SnapToGuides" value="1"/>
<vectornator:setting key="RulersVisible" value="1"/>
</metadata>
<defs/>
<g id="Layer-1" vectornator:layerName="Layer-1">
<path d="M60+83L195+11L266+146L132+218L60+83Z" opacity="1" fill="#000000"/>
<path stroke="#fcfc17" stroke-width="3" d="M167.079+105.458L180.005+62.3729L191.079+25.4578" fill="#000000" stroke-linecap="butt" opacity="1" stroke-linejoin="round"/>
<path stroke="#fcfc17" stroke-width="3" d="M218.079+78.4578L139.079+53.4578" fill="#000000" stroke-linecap="butt" opacity="1" stroke-linejoin="round"/>
<path stroke="#16d41a" stroke-width="3" d="M178.579+154.676C178.579+164.153+174.837+173.006+168.338+178.773C166.608+180.308+164.682+181.625+162.579+182.676C146.579+190.676+127.579+183.676+120.579+167.676C114.579+153.676+120.579+137.676+133.579+129.676C135.211+128.86+136.883+128.194+138.578+127.674C151.432+123.73+165.628+128.191+173.579+139.676" fill="#000000" stroke-linecap="butt" opacity="1" stroke-linejoin="round"/>
<path d="M48+162L60+90L128+219L112+282L48+162Z" opacity="1" fill="#000000"/>
<path d="M134+220L116+284L241+217L265+151L134+220Z" opacity="1" fill="#000000"/>
<path stroke="#ff0000" stroke-width="3" d="M93.8397+74.8083C95.9377+72.5746+98.3975+70.5708+101.167+68.8661" fill="#000000" stroke-linecap="butt" opacity="1" stroke-linejoin="round"/>
<path stroke="#ff0000" stroke-width="3" d="M130.167+121.866C114.167+129.866+95+121.458+88+105.458C83.2785+94.4409+86.0916+83.0576+93.8397+74.8083" fill="#000000" stroke-linecap="butt" opacity="1" stroke-linejoin="round"/>
<path stroke="#ff0000" stroke-width="3" d="M146.167+93.8661C146.167+105.866+140.167+116.866+130.167+121.866" fill="#000000" stroke-linecap="butt" opacity="1" stroke-linejoin="round"/>
<path stroke="#fb16bb" stroke-width="3" d="M239.153+120.969C240.023+130.406+237.109+139.565+231.167+145.904C229.585+147.592+227.788+149.08+225.791+150.32C210.593+159.755+191.031+154.528+182.591+139.238C175.332+125.848+179.838+109.365+192.048+100.206C193.598+99.2437+195.201+98.4267+196.842+97.7532C209.28+92.6461+223.825+95.7846+232.797+106.492" fill="#000000" stroke-linecap="butt" opacity="1" stroke-linejoin="round"/>
<path stroke="#ff0000" stroke-width="3" d="M99.5391+69.868C114.63+60.2623+134.562+66.6513+143.173+81.845C149.004+92.3169+147.378+103.93+140.521+112.933" fill="#000000" stroke-linecap="butt" opacity="1" stroke-linejoin="round"/>
</g>
</svg>
